<?xml version="1.0" encoding="UTF-8"?>
<svg width="54px" height="39px" viewBox="0 0 54 39" version="1.1" xmlns="http://www.w3.org/2000/svg" xmlns:xlink="http://www.w3.org/1999/xlink">
    <!-- Generator: Sketch 62 (91390) - https://sketch.com -->
    <title>Combined Shape 2</title>
    <desc>Created with Sketch.</desc>
    <g id="travel-mate0.2" stroke="none" stroke-width="1" fill="none" fill-rule="evenodd">
        <g id="Artboard" transform="translate(-349.000000, -24.000000)">
            <g id="Combined-Shape-2" transform="translate(349.000000, 24.000000)">
                <rect id="Rectangle" fill="#FFFFFF" x="0" y="0" width="53.76" height="38.4" rx="15.9744"></rect>
                <path d="M37.7856,0 C46.6080175,-1.6206518e-15 53.76,7.15198249 53.76,15.9744 L53.76,22.4256 C53.76,31.2480175 46.6080175,38.4 37.7856,38.4 L15.9744,38.4 C7.15198249,38.4 4.63314821e-15,31.2480175 0,22.4256 L0,15.9744 C2.47227914e-15,7.15198249 7.15198249,1.6206518e-15 15.9744,0 L37.7856,0 Z M28.707,7.4496 L24.7758,7.4496 L24.7758,30.1632 L27.849,30.1632 L27.849,21.1776 L27.5526,11.9892 L27.6306,11.9736 L34.9626,30.1632 L37.0062,30.1632 L44.3694,11.9268 L44.4474,11.9424 L44.1354,21.1776 L44.1354,30.1632 L47.2086,30.1632 L47.2086,7.4496 L43.2774,7.4496 L36.039,25.9044 L35.9454,25.9044 L28.707,7.4496 Z M15.5659032,12.7110604 C14.3519225,12.7110604 13.2983382,13.4989698 13.0036042,14.627876 L11.7941164,19.2657778 C11.6717501,19.7353255 11.8153423,20.2319729 12.1724183,20.5742241 L16.0641655,24.3036619 L16.0641655,27.8664764 C16.0641655,28.627261 16.7079976,29.2442414 17.5018925,29.2442414 C18.2957873,29.2442414 18.9396194,28.627261 18.9396194,27.8664764 L18.9396194,24.3036619 C18.9396194,23.5678493 18.6403925,22.8759529 18.0972013,22.355416 L15.993627,20.3395734 C16.0003664,20.3180459 16.0156422,20.3012544 16.021483,20.2788657 L16.9151201,16.8529667 L17.9228769,17.8186939 C18.1924507,18.0770248 18.5581725,18.2225513 18.9391701,18.2225513 L21.335424,18.222336 L21.335424,18.222336 C22.5335514,18.2221207 22.77312,17.743104 22.77312,16.78464 C22.77312,15.826176 22.293888,15.346944 21.335424,15.346944 L19.418496,15.346944 L19.418496,15.346944 L17.4331511,13.4524702 C16.9348889,12.9741274 16.271288,12.7110604 15.5659032,12.7110604 Z M11.1898218,21.5808537 L9.63707665,27.5319378 C9.44478067,28.2707643 9.91294051,29.0186324 10.683023,29.2029085 C10.8002876,29.2313249 10.9175522,29.2438109 11.033469,29.2438109 C11.6773011,29.2438109 12.2631748,28.8261759 12.4271656,28.2005844 L13.5611727,23.853305 L11.1898218,21.5808537 Z M7.15744692,13.8782857 L6.0220919,18.1032885 C5.92369746,18.4658129 6.16316886,18.8330734 6.5576452,18.9239198 L9.41333039,19.580511 C9.80825602,19.6709268 10.2076745,19.4504844 10.306069,19.08796 L12.1553453,12.2374536 C12.2537397,11.8749292 12.0142683,11.5076687 11.619792,11.4168223 C9.64830889,10.963882 7.65031769,12.0656635 7.15744692,13.8782857 Z M16.783029,7.2 C15.591962,7.2 14.6264385,8.12525537 14.6264385,9.26664764 C14.6264385,10.4080399 15.591962,11.3332953 16.783029,11.3332953 C17.9740959,11.3332953 18.9396194,10.4080399 18.9396194,9.26664764 C18.9396194,8.12525537 17.9740959,7.2 16.783029,7.2 Z" id="Combined-Shape" fill="#71AF75"></path>
            </g>
        </g>
    </g>
</svg>